# xmcd
#
# Track frame offsets:
#	150
#	11318
#	23967
#	35783
#	49891
#	63739
#	79365
#	93396
#	111215
#	124498
#	138493
#	155346
#	169184
#	180832
#	194759
#	210895
#	224771
#	238799
#	252368
#	267256
#	280731
#	295535
#	309097
#
# Disc length: 4338 seconds
#
# Revision: 0
# Processed by: cddbd v1.5.2PL0 Copyright (c) Steve Scherf et al.
# Submitted via: dBpowerAMP V4.0
#
DISCID=5410f017
DTITLE=nyif - blues
DYEAR=1900
DGENRE=
TTITLE0=jit
TTITLE1=ok
TTITLE2=lord
TTITLE3=here
TTITLE4=do me
TTITLE5=oh no
TTITLE6=ex
TTITLE7=gonna
TTITLE8=roxeffe
TTITLE9=zap
TTITLE10=be with u
TTITLE11=never
TTITLE12=let it flow
TTITLE13=dance
TTITLE14=sexual
TTITLE15=i give my love
TTITLE16=beautiful
TTITLE17=wow
TTITLE18=call it love
TTITLE19=hooked on
TTITLE20=penny lover
TTITLE21=ponk
TTITLE22=hook
EXTD=
EXTT0=
EXTT1=
EXTT2=
EXTT3=
EXTT4=
EXTT5=
EXTT6=
EXTT7=
EXTT8=
EXTT9=
EXTT10=
EXTT11=
EXTT12=
EXTT13=
EXTT14=
EXTT15=
EXTT16=
EXTT17=
EXTT18=
EXTT19=
EXTT20=
EXTT21=
EXTT22=
PLAYORDER=
